<mxfile host="app.diagrams.net" modified="2021-06-10T21:59:25.451Z" agent="5.0 (Macintosh; Intel Mac OS X 10_14_6) AppleWebKit/537.36 (KHTML, like Gecko) Chrome/91.0.4472.77 Safari/537.36" etag="d-mJ60AlG7vSlFhROwR3" version="14.2.4" type="github">
  <diagram id="C5RBs43oDa-KdzZeNtuy" name="Page-1">
    <mxGraphModel dx="1853" dy="523" grid="1" gridSize="10" guides="1" tooltips="1" connect="1" arrows="1" fold="1" page="1" pageScale="1" pageWidth="827" pageHeight="1169" math="0" shadow="0">
      <root>
        <mxCell id="WIyWlLk6GJQsqaUBKTNV-0" />
        <mxCell id="WIyWlLk6GJQsqaUBKTNV-1" parent="WIyWlLk6GJQsqaUBKTNV-0" />
        <mxCell id="6hxh2bdvr39wzXqFQy1S-3" value="" style="group" vertex="1" connectable="0" parent="WIyWlLk6GJQsqaUBKTNV-1">
          <mxGeometry x="670" y="470" width="120" height="190" as="geometry" />
        </mxCell>
        <mxCell id="6hxh2bdvr39wzXqFQy1S-0" value="UseCase" style="whiteSpace=wrap;html=1;" vertex="1" parent="6hxh2bdvr39wzXqFQy1S-3">
          <mxGeometry width="120" height="60" as="geometry" />
        </mxCell>
        <mxCell id="6hxh2bdvr39wzXqFQy1S-1" value="Call Elevator&lt;br&gt;external request&lt;br&gt;internal request&lt;br&gt;open gate&lt;br&gt;close gate&lt;br&gt;checkWeight" style="whiteSpace=wrap;html=1;" vertex="1" parent="6hxh2bdvr39wzXqFQy1S-3">
          <mxGeometry y="60" width="120" height="130" as="geometry" />
        </mxCell>
        <mxCell id="6hxh2bdvr39wzXqFQy1S-4" value="ElevatorSystem" style="swimlane;fontStyle=1;align=center;verticalAlign=top;childLayout=stackLayout;horizontal=1;startSize=26;horizontalStack=0;resizeParent=1;resizeParentMax=0;resizeLast=0;collapsible=1;marginBottom=0;" vertex="1" parent="WIyWlLk6GJQsqaUBKTNV-1">
          <mxGeometry x="-80" y="280" width="160" height="130" as="geometry" />
        </mxCell>
        <mxCell id="6hxh2bdvr39wzXqFQy1S-5" value="- List&lt;Elevator&gt;: elevators" style="text;strokeColor=none;fillColor=none;align=left;verticalAlign=top;spacingLeft=4;spacingRight=4;overflow=hidden;rotatable=0;points=[[0,0.5],[1,0.5]];portConstraint=eastwest;" vertex="1" parent="6hxh2bdvr39wzXqFQy1S-4">
          <mxGeometry y="26" width="160" height="26" as="geometry" />
        </mxCell>
        <mxCell id="6hxh2bdvr39wzXqFQy1S-6" value="" style="line;strokeWidth=1;fillColor=none;align=left;verticalAlign=middle;spacingTop=-1;spacingLeft=3;spacingRight=3;rotatable=0;labelPosition=right;points=[];portConstraint=eastwest;" vertex="1" parent="6hxh2bdvr39wzXqFQy1S-4">
          <mxGeometry y="52" width="160" height="8" as="geometry" />
        </mxCell>
        <mxCell id="6hxh2bdvr39wzXqFQy1S-7" value="+ void handleRequest(&#xa;ExternalRequest eq)&#xa;" style="text;strokeColor=none;fillColor=none;align=left;verticalAlign=top;spacingLeft=4;spacingRight=4;overflow=hidden;rotatable=0;points=[[0,0.5],[1,0.5]];portConstraint=eastwest;" vertex="1" parent="6hxh2bdvr39wzXqFQy1S-4">
          <mxGeometry y="60" width="160" height="70" as="geometry" />
        </mxCell>
        <mxCell id="6hxh2bdvr39wzXqFQy1S-8" value="Elevator" style="swimlane;fontStyle=1;align=center;verticalAlign=top;childLayout=stackLayout;horizontal=1;startSize=26;horizontalStack=0;resizeParent=1;resizeParentMax=0;resizeLast=0;collapsible=1;marginBottom=0;" vertex="1" parent="WIyWlLk6GJQsqaUBKTNV-1">
          <mxGeometry x="120" y="280" width="240" height="330" as="geometry" />
        </mxCell>
        <mxCell id="6hxh2bdvr39wzXqFQy1S-9" value="- Gate gate&#xa;- float weightLimit&#xa;- Status status&#xa;- List&lt;Buttons&gt; buttons&#xa;- int currentLevel&#xa;- List&lt;Integer&gt; upStops&#xa;- List&lt;Integer&gt; downStops&#xa;- boolean isGateOpen" style="text;strokeColor=none;fillColor=none;align=left;verticalAlign=top;spacingLeft=4;spacingRight=4;overflow=hidden;rotatable=0;points=[[0,0.5],[1,0.5]];portConstraint=eastwest;" vertex="1" parent="6hxh2bdvr39wzXqFQy1S-8">
          <mxGeometry y="26" width="240" height="114" as="geometry" />
        </mxCell>
        <mxCell id="6hxh2bdvr39wzXqFQy1S-10" value="" style="line;strokeWidth=1;fillColor=none;align=left;verticalAlign=middle;spacingTop=-1;spacingLeft=3;spacingRight=3;rotatable=0;labelPosition=right;points=[];portConstraint=eastwest;" vertex="1" parent="6hxh2bdvr39wzXqFQy1S-8">
          <mxGeometry y="140" width="240" height="8" as="geometry" />
        </mxCell>
        <mxCell id="6hxh2bdvr39wzXqFQy1S-11" value="+ void handleExternalRequest( &#xa;ExternalRequest er)&#xa;+ void handleInternalRequest(&#xa;InternalRequest ir)&#xa;- boolean isRequestValid(&#xa;InternalRequest ir)&#xa;+ void moveElevator()&#xa;+ void openGate()&#xa;+ void closeGate()&#xa;- float getCurrentWeight()" style="text;strokeColor=none;fillColor=none;align=left;verticalAlign=top;spacingLeft=4;spacingRight=4;overflow=hidden;rotatable=0;points=[[0,0.5],[1,0.5]];portConstraint=eastwest;" vertex="1" parent="6hxh2bdvr39wzXqFQy1S-8">
          <mxGeometry y="148" width="240" height="182" as="geometry" />
        </mxCell>
        <mxCell id="6hxh2bdvr39wzXqFQy1S-12" value="ExternalRequest" style="swimlane;fontStyle=1;align=center;verticalAlign=top;childLayout=stackLayout;horizontal=1;startSize=26;horizontalStack=0;resizeParent=1;resizeParentMax=0;resizeLast=0;collapsible=1;marginBottom=0;" vertex="1" parent="WIyWlLk6GJQsqaUBKTNV-1">
          <mxGeometry x="640" y="280" width="160" height="130" as="geometry" />
        </mxCell>
        <mxCell id="6hxh2bdvr39wzXqFQy1S-13" value="- int currLevel&#xa;- Direction d" style="text;strokeColor=none;fillColor=none;align=left;verticalAlign=top;spacingLeft=4;spacingRight=4;overflow=hidden;rotatable=0;points=[[0,0.5],[1,0.5]];portConstraint=eastwest;" vertex="1" parent="6hxh2bdvr39wzXqFQy1S-12">
          <mxGeometry y="26" width="160" height="44" as="geometry" />
        </mxCell>
        <mxCell id="6hxh2bdvr39wzXqFQy1S-14" value="" style="line;strokeWidth=1;fillColor=none;align=left;verticalAlign=middle;spacingTop=-1;spacingLeft=3;spacingRight=3;rotatable=0;labelPosition=right;points=[];portConstraint=eastwest;" vertex="1" parent="6hxh2bdvr39wzXqFQy1S-12">
          <mxGeometry y="70" width="160" height="8" as="geometry" />
        </mxCell>
        <mxCell id="6hxh2bdvr39wzXqFQy1S-15" value="+ int getCurrLevel()&#xa;+ Direction getCurrDirection()" style="text;strokeColor=none;fillColor=none;align=left;verticalAlign=top;spacingLeft=4;spacingRight=4;overflow=hidden;rotatable=0;points=[[0,0.5],[1,0.5]];portConstraint=eastwest;" vertex="1" parent="6hxh2bdvr39wzXqFQy1S-12">
          <mxGeometry y="78" width="160" height="52" as="geometry" />
        </mxCell>
        <mxCell id="6hxh2bdvr39wzXqFQy1S-16" value="Button" style="swimlane;fontStyle=1;align=center;verticalAlign=top;childLayout=stackLayout;horizontal=1;startSize=26;horizontalStack=0;resizeParent=1;resizeParentMax=0;resizeLast=0;collapsible=1;marginBottom=0;" vertex="1" parent="WIyWlLk6GJQsqaUBKTNV-1">
          <mxGeometry x="440" y="440" width="160" height="130" as="geometry" />
        </mxCell>
        <mxCell id="6hxh2bdvr39wzXqFQy1S-17" value="- int level&#xa;- Elevator elevator" style="text;strokeColor=none;fillColor=none;align=left;verticalAlign=top;spacingLeft=4;spacingRight=4;overflow=hidden;rotatable=0;points=[[0,0.5],[1,0.5]];portConstraint=eastwest;" vertex="1" parent="6hxh2bdvr39wzXqFQy1S-16">
          <mxGeometry y="26" width="160" height="54" as="geometry" />
        </mxCell>
        <mxCell id="6hxh2bdvr39wzXqFQy1S-18" value="" style="line;strokeWidth=1;fillColor=none;align=left;verticalAlign=middle;spacingTop=-1;spacingLeft=3;spacingRight=3;rotatable=0;labelPosition=right;points=[];portConstraint=eastwest;" vertex="1" parent="6hxh2bdvr39wzXqFQy1S-16">
          <mxGeometry y="80" width="160" height="8" as="geometry" />
        </mxCell>
        <mxCell id="6hxh2bdvr39wzXqFQy1S-19" value="+ InternalRequest &#xa;pressButton()" style="text;strokeColor=none;fillColor=none;align=left;verticalAlign=top;spacingLeft=4;spacingRight=4;overflow=hidden;rotatable=0;points=[[0,0.5],[1,0.5]];portConstraint=eastwest;" vertex="1" parent="6hxh2bdvr39wzXqFQy1S-16">
          <mxGeometry y="88" width="160" height="42" as="geometry" />
        </mxCell>
        <mxCell id="6hxh2bdvr39wzXqFQy1S-20" value="InternalRequest" style="swimlane;fontStyle=1;align=center;verticalAlign=top;childLayout=stackLayout;horizontal=1;startSize=26;horizontalStack=0;resizeParent=1;resizeParentMax=0;resizeLast=0;collapsible=1;marginBottom=0;" vertex="1" parent="WIyWlLk6GJQsqaUBKTNV-1">
          <mxGeometry x="440" y="280" width="160" height="110" as="geometry" />
        </mxCell>
        <mxCell id="6hxh2bdvr39wzXqFQy1S-21" value="- Elevator elevator&#xa;- int level" style="text;strokeColor=none;fillColor=none;align=left;verticalAlign=top;spacingLeft=4;spacingRight=4;overflow=hidden;rotatable=0;points=[[0,0.5],[1,0.5]];portConstraint=eastwest;" vertex="1" parent="6hxh2bdvr39wzXqFQy1S-20">
          <mxGeometry y="26" width="160" height="44" as="geometry" />
        </mxCell>
        <mxCell id="6hxh2bdvr39wzXqFQy1S-22" value="" style="line;strokeWidth=1;fillColor=none;align=left;verticalAlign=middle;spacingTop=-1;spacingLeft=3;spacingRight=3;rotatable=0;labelPosition=right;points=[];portConstraint=eastwest;" vertex="1" parent="6hxh2bdvr39wzXqFQy1S-20">
          <mxGeometry y="70" width="160" height="8" as="geometry" />
        </mxCell>
        <mxCell id="6hxh2bdvr39wzXqFQy1S-23" value="Getter and setters" style="text;strokeColor=none;fillColor=none;align=left;verticalAlign=top;spacingLeft=4;spacingRight=4;overflow=hidden;rotatable=0;points=[[0,0.5],[1,0.5]];portConstraint=eastwest;" vertex="1" parent="6hxh2bdvr39wzXqFQy1S-20">
          <mxGeometry y="78" width="160" height="32" as="geometry" />
        </mxCell>
        <mxCell id="6hxh2bdvr39wzXqFQy1S-28" value="" style="group" vertex="1" connectable="0" parent="WIyWlLk6GJQsqaUBKTNV-1">
          <mxGeometry x="-80" y="440" width="160" height="100" as="geometry" />
        </mxCell>
        <mxCell id="6hxh2bdvr39wzXqFQy1S-24" value="«Enumeration»&lt;br&gt;&lt;b&gt;Direction&lt;/b&gt;" style="html=1;" vertex="1" parent="6hxh2bdvr39wzXqFQy1S-28">
          <mxGeometry width="160" height="50" as="geometry" />
        </mxCell>
        <mxCell id="6hxh2bdvr39wzXqFQy1S-26" value="UP&lt;br&gt;DOWN" style="html=1;" vertex="1" parent="6hxh2bdvr39wzXqFQy1S-28">
          <mxGeometry y="50" width="160" height="50" as="geometry" />
        </mxCell>
        <mxCell id="6hxh2bdvr39wzXqFQy1S-29" value="" style="group" vertex="1" connectable="0" parent="WIyWlLk6GJQsqaUBKTNV-1">
          <mxGeometry x="-80" y="560" width="160" height="100" as="geometry" />
        </mxCell>
        <mxCell id="6hxh2bdvr39wzXqFQy1S-30" value="«Enumeration»&lt;br&gt;&lt;b&gt;Status&lt;/b&gt;" style="html=1;" vertex="1" parent="6hxh2bdvr39wzXqFQy1S-29">
          <mxGeometry width="160" height="50" as="geometry" />
        </mxCell>
        <mxCell id="6hxh2bdvr39wzXqFQy1S-31" value="UP&lt;br&gt;DOWN&lt;br&gt;IDLE" style="html=1;" vertex="1" parent="6hxh2bdvr39wzXqFQy1S-29">
          <mxGeometry y="50" width="160" height="50" as="geometry" />
        </mxCell>
        <mxCell id="6hxh2bdvr39wzXqFQy1S-32" value="InvalidInternalRequestException" style="html=1;" vertex="1" parent="WIyWlLk6GJQsqaUBKTNV-1">
          <mxGeometry x="120" y="630" width="240" height="30" as="geometry" />
        </mxCell>
        <mxCell id="6hxh2bdvr39wzXqFQy1S-33" value="OverweightException" style="html=1;" vertex="1" parent="WIyWlLk6GJQsqaUBKTNV-1">
          <mxGeometry x="120" y="680" width="240" height="30" as="geometry" />
        </mxCell>
        <mxCell id="6hxh2bdvr39wzXqFQy1S-34" value="" style="endArrow=diamondThin;endFill=1;endSize=24;html=1;entryX=1;entryY=0.5;entryDx=0;entryDy=0;exitX=0;exitY=0.5;exitDx=0;exitDy=0;" edge="1" parent="WIyWlLk6GJQsqaUBKTNV-1" source="6hxh2bdvr39wzXqFQy1S-17" target="6hxh2bdvr39wzXqFQy1S-9">
          <mxGeometry width="160" relative="1" as="geometry">
            <mxPoint x="330" y="490" as="sourcePoint" />
            <mxPoint x="490" y="490" as="targetPoint" />
          </mxGeometry>
        </mxCell>
        <mxCell id="6hxh2bdvr39wzXqFQy1S-35" value="makes" style="endArrow=open;endFill=1;endSize=12;html=1;exitX=0.5;exitY=0;exitDx=0;exitDy=0;" edge="1" parent="WIyWlLk6GJQsqaUBKTNV-1" source="6hxh2bdvr39wzXqFQy1S-16" target="6hxh2bdvr39wzXqFQy1S-23">
          <mxGeometry width="160" relative="1" as="geometry">
            <mxPoint x="330" y="490" as="sourcePoint" />
            <mxPoint x="515" y="391" as="targetPoint" />
          </mxGeometry>
        </mxCell>
      </root>
    </mxGraphModel>
  </diagram>
</mxfile>
